<mxfile host="app.diagrams.net" agent="Mozilla/5.0 (Windows NT 10.0; Win64; x64) AppleWebKit/537.36 (KHTML, like Gecko) Chrome/127.0.0.0 Safari/537.36 OPR/113.0.0.0" version="24.8.3">
  <diagram name="Page-1" id="W6SwX-L_nx3aOE7BR-N0">
    <mxGraphModel dx="1441" dy="839" grid="1" gridSize="10" guides="1" tooltips="1" connect="1" arrows="1" fold="1" page="1" pageScale="1" pageWidth="827" pageHeight="1169" math="0" shadow="0">
      <root>
        <mxCell id="0" />
        <mxCell id="1" parent="0" />
        <mxCell id="61PrFtFL8h-ijNaHNFcN-3" value="" style="edgeStyle=orthogonalEdgeStyle;rounded=0;orthogonalLoop=1;jettySize=auto;html=1;entryX=0.504;entryY=0.247;entryDx=0;entryDy=0;entryPerimeter=0;" edge="1" parent="1" source="61PrFtFL8h-ijNaHNFcN-1" target="61PrFtFL8h-ijNaHNFcN-2">
          <mxGeometry relative="1" as="geometry" />
        </mxCell>
        <mxCell id="61PrFtFL8h-ijNaHNFcN-1" value="Başla" style="strokeWidth=2;html=1;shape=mxgraph.flowchart.start_1;whiteSpace=wrap;" vertex="1" parent="1">
          <mxGeometry x="270" y="20" width="100" height="60" as="geometry" />
        </mxCell>
        <mxCell id="61PrFtFL8h-ijNaHNFcN-2" value="n1 ve n2" style="html=1;strokeWidth=2;shape=manualInput;whiteSpace=wrap;rounded=1;size=26;arcSize=11;" vertex="1" parent="1">
          <mxGeometry x="270" y="123.62" width="100" height="60" as="geometry" />
        </mxCell>
        <mxCell id="61PrFtFL8h-ijNaHNFcN-5" style="edgeStyle=orthogonalEdgeStyle;rounded=0;orthogonalLoop=1;jettySize=auto;html=1;labelBorderColor=none;" edge="1" parent="1" source="61PrFtFL8h-ijNaHNFcN-4">
          <mxGeometry relative="1" as="geometry">
            <mxPoint x="450" y="290" as="targetPoint" />
          </mxGeometry>
        </mxCell>
        <mxCell id="61PrFtFL8h-ijNaHNFcN-7" value="Evet" style="edgeLabel;html=1;align=center;verticalAlign=middle;resizable=0;points=[];" vertex="1" connectable="0" parent="61PrFtFL8h-ijNaHNFcN-5">
          <mxGeometry x="0.2794" relative="1" as="geometry">
            <mxPoint x="-7" as="offset" />
          </mxGeometry>
        </mxCell>
        <mxCell id="61PrFtFL8h-ijNaHNFcN-8" style="edgeStyle=orthogonalEdgeStyle;rounded=0;orthogonalLoop=1;jettySize=auto;html=1;" edge="1" parent="1" source="61PrFtFL8h-ijNaHNFcN-4">
          <mxGeometry relative="1" as="geometry">
            <mxPoint x="320" y="410" as="targetPoint" />
          </mxGeometry>
        </mxCell>
        <mxCell id="61PrFtFL8h-ijNaHNFcN-9" value="Hayır" style="edgeLabel;html=1;align=center;verticalAlign=middle;resizable=0;points=[];" vertex="1" connectable="0" parent="61PrFtFL8h-ijNaHNFcN-8">
          <mxGeometry x="0.2477" y="-1" relative="1" as="geometry">
            <mxPoint x="-2" y="-13" as="offset" />
          </mxGeometry>
        </mxCell>
        <mxCell id="61PrFtFL8h-ijNaHNFcN-4" value="n1 &amp;lt; n2" style="strokeWidth=2;html=1;shape=mxgraph.flowchart.decision;whiteSpace=wrap;" vertex="1" parent="1">
          <mxGeometry x="270" y="270" width="100" height="50" as="geometry" />
        </mxCell>
        <mxCell id="61PrFtFL8h-ijNaHNFcN-6" style="edgeStyle=orthogonalEdgeStyle;rounded=0;orthogonalLoop=1;jettySize=auto;html=1;entryX=0.5;entryY=0;entryDx=0;entryDy=0;entryPerimeter=0;" edge="1" parent="1" source="61PrFtFL8h-ijNaHNFcN-2" target="61PrFtFL8h-ijNaHNFcN-4">
          <mxGeometry relative="1" as="geometry" />
        </mxCell>
        <mxCell id="61PrFtFL8h-ijNaHNFcN-10" value="n1 mod n2 = kalan" style="rounded=1;whiteSpace=wrap;html=1;absoluteArcSize=1;arcSize=14;strokeWidth=2;" vertex="1" parent="1">
          <mxGeometry x="260" y="410" width="120" height="40" as="geometry" />
        </mxCell>
        <mxCell id="61PrFtFL8h-ijNaHNFcN-14" style="edgeStyle=orthogonalEdgeStyle;rounded=0;orthogonalLoop=1;jettySize=auto;html=1;entryX=1;entryY=0.5;entryDx=0;entryDy=0;" edge="1" parent="1" source="61PrFtFL8h-ijNaHNFcN-11" target="61PrFtFL8h-ijNaHNFcN-10">
          <mxGeometry relative="1" as="geometry">
            <mxPoint x="470" y="460" as="targetPoint" />
            <Array as="points">
              <mxPoint x="500" y="430" />
            </Array>
          </mxGeometry>
        </mxCell>
        <mxCell id="61PrFtFL8h-ijNaHNFcN-11" value="n2, n1 = n1, n2" style="rounded=1;whiteSpace=wrap;html=1;absoluteArcSize=1;arcSize=14;strokeWidth=2;" vertex="1" parent="1">
          <mxGeometry x="450" y="270" width="100" height="40" as="geometry" />
        </mxCell>
        <mxCell id="61PrFtFL8h-ijNaHNFcN-20" style="edgeStyle=orthogonalEdgeStyle;rounded=0;orthogonalLoop=1;jettySize=auto;html=1;entryX=0.5;entryY=1;entryDx=0;entryDy=0;" edge="1" parent="1" source="61PrFtFL8h-ijNaHNFcN-15" target="61PrFtFL8h-ijNaHNFcN-19">
          <mxGeometry relative="1" as="geometry" />
        </mxCell>
        <mxCell id="61PrFtFL8h-ijNaHNFcN-22" value="Hayır" style="edgeLabel;html=1;align=center;verticalAlign=middle;resizable=0;points=[];" vertex="1" connectable="0" parent="61PrFtFL8h-ijNaHNFcN-20">
          <mxGeometry x="-0.2808" relative="1" as="geometry">
            <mxPoint as="offset" />
          </mxGeometry>
        </mxCell>
        <mxCell id="61PrFtFL8h-ijNaHNFcN-15" value="kalan = 0" style="strokeWidth=2;html=1;shape=mxgraph.flowchart.decision;whiteSpace=wrap;" vertex="1" parent="1">
          <mxGeometry x="270" y="530" width="100" height="55" as="geometry" />
        </mxCell>
        <mxCell id="61PrFtFL8h-ijNaHNFcN-16" style="edgeStyle=orthogonalEdgeStyle;rounded=0;orthogonalLoop=1;jettySize=auto;html=1;entryX=0.5;entryY=0;entryDx=0;entryDy=0;entryPerimeter=0;" edge="1" parent="1" source="61PrFtFL8h-ijNaHNFcN-10" target="61PrFtFL8h-ijNaHNFcN-15">
          <mxGeometry relative="1" as="geometry" />
        </mxCell>
        <mxCell id="61PrFtFL8h-ijNaHNFcN-21" style="edgeStyle=orthogonalEdgeStyle;rounded=0;orthogonalLoop=1;jettySize=auto;html=1;exitX=0.5;exitY=0;exitDx=0;exitDy=0;entryX=0;entryY=0.5;entryDx=0;entryDy=0;" edge="1" parent="1" source="61PrFtFL8h-ijNaHNFcN-19" target="61PrFtFL8h-ijNaHNFcN-10">
          <mxGeometry relative="1" as="geometry" />
        </mxCell>
        <mxCell id="61PrFtFL8h-ijNaHNFcN-19" value="n2, kalan = n1, n2" style="rounded=1;whiteSpace=wrap;html=1;absoluteArcSize=1;arcSize=14;strokeWidth=2;" vertex="1" parent="1">
          <mxGeometry x="100" y="480" width="120" height="40" as="geometry" />
        </mxCell>
        <mxCell id="61PrFtFL8h-ijNaHNFcN-27" value="" style="edgeStyle=orthogonalEdgeStyle;rounded=0;orthogonalLoop=1;jettySize=auto;html=1;" edge="1" parent="1" source="61PrFtFL8h-ijNaHNFcN-23" target="61PrFtFL8h-ijNaHNFcN-26">
          <mxGeometry relative="1" as="geometry" />
        </mxCell>
        <mxCell id="61PrFtFL8h-ijNaHNFcN-23" value="EBOB = n2" style="strokeWidth=2;html=1;shape=mxgraph.flowchart.document2;whiteSpace=wrap;size=0.25;" vertex="1" parent="1">
          <mxGeometry x="270" y="660" width="100" height="60" as="geometry" />
        </mxCell>
        <mxCell id="61PrFtFL8h-ijNaHNFcN-24" style="edgeStyle=orthogonalEdgeStyle;rounded=0;orthogonalLoop=1;jettySize=auto;html=1;entryX=0.5;entryY=0;entryDx=0;entryDy=0;entryPerimeter=0;" edge="1" parent="1" source="61PrFtFL8h-ijNaHNFcN-15" target="61PrFtFL8h-ijNaHNFcN-23">
          <mxGeometry relative="1" as="geometry" />
        </mxCell>
        <mxCell id="61PrFtFL8h-ijNaHNFcN-25" value="Evet" style="edgeLabel;html=1;align=center;verticalAlign=middle;resizable=0;points=[];" vertex="1" connectable="0" parent="61PrFtFL8h-ijNaHNFcN-24">
          <mxGeometry x="-0.0888" y="1" relative="1" as="geometry">
            <mxPoint as="offset" />
          </mxGeometry>
        </mxCell>
        <mxCell id="61PrFtFL8h-ijNaHNFcN-26" value="Bitir" style="ellipse;whiteSpace=wrap;html=1;strokeWidth=2;" vertex="1" parent="1">
          <mxGeometry x="270" y="800" width="100" height="60" as="geometry" />
        </mxCell>
      </root>
    </mxGraphModel>
  </diagram>
</mxfile>
